<svg xmlns="http://www.w3.org/2000/svg" preserveAspectRatio="xMidYMid" width="19" height="21.593"><path d="M.006 4.321V3.026c0-.715.58-1.294 1.295-1.294h16.395c.715 0 1.294.579 1.294 1.294v1.295H.006zM7.772.006h3.452c.476 0 .863 1.726.863 1.726H6.909S7.296.006 7.772.006zm8.629 18.984a2.589 2.589 0 01-2.589 2.589H5.183a2.589 2.589 0 01-2.588-2.589L.869 5.184h17.258L16.401 18.99zM6.909 7.772H5.183V18.99h1.726V7.772zm3.452 0H8.635V18.99h1.726V7.772zm3.451 0h-1.725V18.99h1.725V7.772z" fill="#888" fill-rule="evenodd"/></svg>